<?xml version="1.0" standalone="no"?>
<!DOCTYPE svg PUBLIC "-//W3C//DTD SVG 20010904//EN"
 "http://www.w3.org/TR/2001/REC-SVG-20010904/DTD/svg10.dtd">
<svg version="1.0" xmlns="http://www.w3.org/2000/svg"
 width="512.000000pt" height="512.000000pt" viewBox="0 0 512.000000 512.000000"
 preserveAspectRatio="xMidYMid meet">

<g transform="translate(0.000000,512.000000) scale(0.100000,-0.100000)"
fill="#000000" stroke="none">
<path d="M897 4830 c-76 -29 -132 -82 -169 -158 l-33 -67 -3 -1879 c-1 -1238
1 -1899 8 -1935 22 -122 91 -211 208 -268 70 -35 83 -38 162 -38 75 0 93 4
145 30 33 17 326 229 650 471 347 259 606 446 629 454 40 13 103 10 146 -8 14
-5 295 -212 626 -459 330 -247 620 -457 644 -467 156 -62 350 -3 447 138 68
99 63 -49 61 2066 l-3 1915 -27 50 c-32 60 -87 114 -148 146 l-45 24 -1625 2
c-1570 2 -1627 2 -1673 -17z"/>
</g>
</svg>
