<?xml version="1.0" standalone="no"?>
<!DOCTYPE svg PUBLIC "-//W3C//DTD SVG 20010904//EN"
 "http://www.w3.org/TR/2001/REC-SVG-20010904/DTD/svg10.dtd">
<svg version="1.0" xmlns="http://www.w3.org/2000/svg"
 width="512.000000pt" height="512.000000pt" viewBox="0 0 512.000000 512.000000"
 preserveAspectRatio="xMidYMid meet">

<g transform="translate(0.000000,512.000000) scale(0.100000,-0.100000)"
fill="#000000" stroke="none">
<path d="M926 4825 c-104 -42 -177 -117 -215 -220 l-21 -56 2 -1897 3 -1897
29 -59 c59 -121 178 -201 313 -213 83 -7 154 11 231 59 29 18 329 239 667 491
369 274 623 457 637 457 13 0 273 -188 656 -476 350 -262 656 -486 681 -497
99 -44 246 -32 342 28 55 35 126 120 151 183 l23 57 0 1885 0 1885 -23 58
c-31 76 -116 168 -190 204 l-57 28 -1585 2 -1585 3 -59 -25z m3176 -312 c17
-15 18 -86 18 -1844 0 -1614 -2 -1829 -15 -1843 -41 -40 -29 -48 -692 450
-350 262 -662 489 -692 503 -48 22 -69 26 -151 26 -82 0 -103 -4 -150 -26 -30
-14 -342 -240 -692 -503 -351 -262 -647 -476 -658 -476 -11 0 -29 9 -40 20
-20 20 -20 33 -20 1843 0 1633 2 1825 16 1845 l15 22 1521 0 c1402 0 1523 -1
1540 -17z"/>
</g>
</svg>
