<svg viewBox="0 0 512 512" xmlns="http://www.w3.org/2000/svg" xmlns:xlink="http://www.w3.org/1999/xlink" width="512.000000" height="512.000000" fill="none" customFrame="#000000">
	<g id="logo">
		<rect id="Rectangle 28" width="512.000000" height="512.000000" x="0.000000" y="0.000000" fill="rgb(196,196,196)" />
		<path id="Intersect" d="M154.604 512L371.935 0L512 0L512 512L154.604 512Z" fill="rgb(236,235,235)" fill-rule="evenodd" />
		<path id="" d="M221.781 278.219L221.781 301L147.281 301L147.281 211.406L220.125 211.406L220.125 234.188L177 234.188L177 244.688L214.875 244.688L214.875 266.438L177 266.438L177 278.219L221.781 278.219ZM294.519 211.406L294.519 229.969L264.675 301L231.644 301L260.082 234.812L242.8 234.812L242.8 247.875L217.832 247.875L217.832 211.406L294.519 211.406ZM293.985 211.406L338.173 211.406Q353.142 211.406 364.579 216.844Q376.048 222.281 382.392 232.406Q388.735 242.5 388.735 256.188Q388.735 269.906 382.392 280.031Q376.048 290.125 364.579 295.562Q353.142 301 338.173 301L293.985 301L293.985 211.406ZM336.892 277.438Q346.61 277.438 352.423 271.875Q358.267 266.312 358.267 256.188Q358.267 246.094 352.423 240.531Q346.61 234.938 336.892 234.938L324.204 234.938L324.204 277.438L336.892 277.438Z" fill="rgb(80,80,80)" fill-rule="nonzero" />
	</g>
</svg>
